<svg width="27" height="24" viewBox="0 0 27 24" fill="none" xmlns="http://www.w3.org/2000/svg">
<path d="M5.51199 10C4.29935 10 3.30719 10.9 3.30719 12C3.30719 13.1 4.29935 14 5.51199 14C6.72463 14 7.71678 13.1 7.71678 12C7.71678 10.9 6.72463 10 5.51199 10Z" stroke="#A9ABAD" stroke-width="1.5"/>
<path d="M20.9456 10C19.7329 10 18.7408 10.9 18.7408 12C18.7408 13.1 19.7329 14 20.9456 14C22.1582 14 23.1504 13.1 23.1504 12C23.1504 10.9 22.1582 10 20.9456 10Z" stroke="#A9ABAD" stroke-width="1.5"/>
<path d="M13.2288 10C12.0161 10 11.024 10.9 11.024 12C11.024 13.1 12.0161 14 13.2288 14C14.4414 14 15.4336 13.1 15.4336 12C15.4336 10.9 14.4414 10 13.2288 10Z" stroke="#A9ABAD" stroke-width="1.5"/>
</svg>
