<svg width="18" height="18" viewBox="0 0 18 18" fill="none" xmlns="http://www.w3.org/2000/svg">
<path d="M12.4536 5.51988C12.4039 5.51278 12.3542 5.51278 12.3044 5.51988C11.2033 5.48436 10.3295 4.58213 10.3295 3.47388C10.3295 2.34432 11.2459 1.42078 12.3826 1.42078C13.5121 1.42078 14.4357 2.33721 14.4357 3.47388C14.4286 4.58213 13.5548 5.48436 12.4536 5.51988Z" fill="#59B29F"/>
<path d="M14.7696 10.4431C13.9739 10.9759 12.8585 11.1748 11.8284 11.0398C12.0984 10.4573 12.2405 9.8108 12.2476 9.1288C12.2476 8.41838 12.0913 7.74349 11.7929 7.15384C12.8443 7.01176 13.9597 7.21067 14.7624 7.74349C15.8849 8.48232 15.8849 9.69713 14.7696 10.4431Z" fill="#59B29F"/>
<path d="M4.57509 5.51988C4.62482 5.51278 4.67454 5.51278 4.72427 5.51988C5.82542 5.48436 6.69923 4.58213 6.69923 3.47388C6.69923 2.33721 5.78279 1.42078 4.64613 1.42078C3.51657 1.42078 2.60013 2.33721 2.60013 3.47388C2.60013 4.58213 3.47394 5.48436 4.57509 5.51988Z" fill="#59B29F"/>
<path d="M4.65321 9.12881C4.65321 9.81792 4.8024 10.4715 5.07236 11.0611C4.07067 11.1677 3.02636 10.9546 2.25911 10.4502C1.13665 9.70425 1.13665 8.48944 2.25911 7.7435C3.01926 7.232 4.09199 7.02598 5.10078 7.13964C4.80951 7.73639 4.65321 8.41129 4.65321 9.12881Z" fill="#59B29F"/>
<path d="M8.61025 11.2744C8.55342 11.2673 8.48948 11.2673 8.42554 11.2744C7.11838 11.2317 6.07407 10.159 6.07407 8.83763C6.08117 7.48784 7.16811 6.3938 8.525 6.3938C9.87479 6.3938 10.9688 7.48784 10.9688 8.83763C10.9617 10.159 9.92452 11.2317 8.61025 11.2744Z" fill="#59B29F"/>
<path d="M6.3014 12.7448C5.22867 13.4623 5.22867 14.6416 6.3014 15.352C7.52332 16.169 9.5267 16.169 10.7486 15.352C11.8213 14.6345 11.8213 13.4552 10.7486 12.7448C9.5338 11.9278 7.53042 11.9278 6.3014 12.7448Z" fill="#59B29F"/>
</svg>
